<svg xmlns="http://www.w3.org/2000/svg" version="1.1" xmlns:xlink="http://www.w3.org/1999/xlink" xmlns:svgjs="http://svgjs.dev/svgjs" width="1500" height="1500" viewBox="0 0 1500 1500"><g transform="matrix(1,0,0,1,-0.36655429981783527,-0.36655429981794896)"><svg viewBox="0 0 339 339" data-background-color="#e9efe7" preserveAspectRatio="xMidYMid meet" height="1500" width="1500" xmlns="http://www.w3.org/2000/svg" xmlns:xlink="http://www.w3.org/1999/xlink"><g id="tight-bounds" transform="matrix(1,0,0,1,0.08284127175883782,0.08284127175886624)"><svg viewBox="0 0 338.8343174564823 338.8343174564823" height="338.8343174564823" width="338.8343174564823"><g><svg></svg></g><g><svg viewBox="0 0 338.8343174564823 338.8343174564823" height="338.8343174564823" width="338.8343174564823"><g><path d="M0 169.417c0-93.567 75.851-169.417 169.417-169.417 93.567 0 169.417 75.851 169.417 169.417 0 93.567-75.851 169.417-169.417 169.417-93.567 0-169.417-75.851-169.417-169.417zM169.417 332.236c89.922 0 162.819-72.896 162.819-162.819 0-89.922-72.896-162.819-162.819-162.819-89.922 0-162.819 72.896-162.819 162.819 0 89.922 72.896 162.819 162.819 162.819z" data-fill-palette-color="tertiary" fill="#3154f5" stroke="transparent"></path><ellipse rx="162.64047237911151" ry="162.64047237911151" cx="169.41715872824116" cy="169.41715872824116" fill="#3154f5" stroke="transparent" stroke-width="0" fill-opacity="1" data-fill-palette-color="tertiary"></ellipse></g><g transform="matrix(1,0,0,1,64.25824731270569,73.6379381146626)"><svg viewBox="0 0 210.31782283107094 191.55844122715712" height="191.55844122715712" width="210.31782283107094"><g><svg viewBox="0 0 210.31782283107094 191.55844122715712" height="191.55844122715712" width="210.31782283107094"><g><svg viewBox="0 0 213.1584412271571 194.14568953902517" height="191.55844122715712" width="210.31782283107094"><g transform="matrix(1,0,0,1,0,119.98982487389506)"><svg viewBox="0 0 213.1584412271571 74.1558646651301" height="74.1558646651301" width="213.1584412271571"><g id="textblocktransform"><svg viewBox="0 0 213.1584412271571 74.1558646651301" height="74.1558646651301" width="213.1584412271571" id="textblock"><g><svg viewBox="0 0 213.1584412271571 74.1558646651301" height="74.1558646651301" width="213.1584412271571"><g transform="matrix(1,0,0,1,0,0)"><svg width="213.1584412271571" viewBox="1.2 -34.1 100.75 35.050000000000004" height="74.1558646651301" data-palette-color="#e9efe7"><path d="M37.9-33.1L38.2-31.5Q36.4-30.25 34.2-29.3L34.2-29.3 33.95 0 25.95 0.65 11-21.8 11.7-15.75 11.7-3.35 16.1-2.65 16.05 0 1.5 0 1.2-1.6Q3.1-2.9 5.45-3.95L5.45-3.95 5.45-29.8 1.8-30.45 1.85-33.1 14.1-33.1 14.05-33.05 28.7-10.55 28-16.8 28-29.65 23.05-30.45 23.1-33.1 37.9-33.1ZM67.05-9.3L67.05-9.3Q67.05-4.7 63.42-1.88 59.8 0.95 54 0.95L54 0.95Q50.95 0.95 47.42 0.15 43.9-0.65 41.45-2.1L41.45-2.1 41.5-2.2 41.45-3.7Q41.45-8.4 42.35-11.75L42.35-11.75 46.4-11.75 49.65-4.5Q52.5-3.5 55.45-3.4L55.45-3.4Q58.15-4.65 58.15-7.15 58.15-9.65 54.75-11.45L54.75-11.45 48.65-14.4 46.7-15.5Q41.4-18.7 41.4-23.85L41.4-23.85Q41.4-28.4 45.15-31.25 48.9-34.1 54.85-34.1L54.85-34.1Q60.45-34.1 65.55-32.2L65.55-32.2Q65.35-26.15 64.5-22.65L64.5-22.65 59.9-22.65 57.95-28.75Q55.45-29.75 52.15-29.85L52.15-29.85Q49.9-28.5 49.9-26.1L49.9-26.1Q49.9-24.45 51.47-23.33 53.05-22.2 56.62-20.63 60.2-19.05 62.32-17.65 64.45-16.25 65.75-14.23 67.05-12.2 67.05-9.3ZM94.3-17.5L94.3-17.5Q97.95-16.75 99.95-14.48 101.95-12.2 101.95-9.2L101.95-9.2Q101.95-5.1 98.42-2.63 94.9-0.15 88.85 0L88.85 0 70.35 0 70.05-1.6Q71.95-2.9 74.3-3.95L74.3-3.95 74.3-29.95 70.75-30.45 70.8-33.1Q77.5-33.5 87.7-33.5L87.7-33.5Q93.4-33.5 96.95-31.1 100.5-28.7 100.5-24.95L100.5-24.95Q100.5-22.5 98.9-20.33 97.3-18.15 94.3-17.5ZM88.15-29.15L83.35-28.4 83.35-19 85.6-19Q88.55-19 90.02-20.43 91.5-21.85 91.5-23.9L91.5-23.9Q91.5-25.6 90.57-27.15 89.65-28.7 88.15-29.15L88.15-29.15ZM83.35-4.65L86.85-4.25 87.6-4.2Q90.05-4.2 91.35-5.75 92.65-7.3 92.65-9.4L92.65-9.4Q92.65-11.75 91.07-13.55 89.5-15.35 87.15-15.4L87.15-15.4 83.35-15.4 83.35-4.65Z" opacity="1" transform="matrix(1,0,0,1,0,0)" fill="#e9efe7" class="wordmark-text-0" data-fill-palette-color="quaternary" id="text-0"></path></svg></g></svg></g></svg></g></svg></g><g transform="matrix(1,0,0,1,55.40149029287453,0)"><svg viewBox="0 0 102.35546064140806 102.48340496720981" height="102.48340496720981" width="102.35546064140806"><g><svg xmlns="http://www.w3.org/2000/svg" xmlns:xlink="http://www.w3.org/1999/xlink" version="1.1" x="0" y="0" viewBox="4.3999999999999915 4.899999999999999 80 80.1" enable-background="new 0 0 90 90" xml:space="preserve" height="102.48340496720981" width="102.35546064140806" class="icon-icon-0" data-fill-palette-color="quaternary" id="icon-0"><path d="M81.6 59.6c0-0.1 0-0.1 0.1-0.2 1.6-4.2 2.6-8.8 2.7-13.6 0 0 0 0 0 0l0 0c0-0.3 0-0.6 0-0.9 0-22.1-17.9-40-40-40s-40 17.9-40 40c0 4.6 0.8 9 2.2 13.1l0 0c0 0 0 0 0 0C12 73.7 26.9 85 44.4 85c16.1 0 30-9.6 36.4-23.3 0-0.1 0.1-0.1 0.1-0.2C81.1 60.9 81.4 60.3 81.6 59.6zM77.9 45.9v-1.1h-1.1v1.1h-2.5v-1.1h-1.1v1.1h-2.5v-1.1h-1.1v1.1h-2.9v2.9H48.4v-4.7H56 57V43v-2.6c0.7-0.2 1.3-0.7 1.6-1.4h17.9c0.3 1.2 1.3 2.2 2.5 2.4 0.1 1.2 0.2 2.3 0.2 3.5 0 0.3 0 0.6 0 0.9H77.9zM44.4 10.1c15.9 0 29.3 10.7 33.5 25.2-0.1 0.1-0.2 0.1-0.3 0.2l-6.9-6.7v-0.3h-0.3l0 0 0 0H48.8V22h-5.4v6.5h-2.5V22h-5.4v6.5h-2.5V22h-5.4v6.5h-5.1c-0.2-1-1.2-1.8-2.3-1.8-1.3 0-2.3 1.1-2.3 2.4 0 1.1 0.8 2 1.8 2.3v2.2 1.1h1.1 18.8c0.2 1 1.2 1.8 2.3 1.8 1.3 0 2.3-1.1 2.3-2.4s-1-2.4-2.3-2.4c-1.1 0-2 0.8-2.3 1.8H20.7v-2.2c0.9-0.2 1.5-0.9 1.7-1.7h31.4V32h13.3v-2.4H70l7 6.7c-0.3 0.5-0.5 1-0.5 1.6H58.8c-0.1-1.2-1.1-2.2-2.3-2.2-1.3 0-2.3 1.1-2.3 2.4 0 1.1 0.8 2 1.8 2.3V43H38.3c-0.3-3.6-3.3-6.5-7-6.5-3.7 0-6.7 2.9-7 6.5h-1.8v-1.4-0.4-0.7h-3.6v-1.8h-8.6v4h8.6v-1.1h2.5V43v1.1 1.8h-2.5v-1.1h-8.6v4h8.6V47h3.6v-1.1-1.8h1.8c0.3 3.6 3.3 6.5 7 6.5 3.7 0 6.7-2.9 7-6.5h9v4.7 1.1h1.1 18.3v4.3H44.1C44 52.4 42.5 51 40.7 51c-1.8 0-3.3 1.4-3.4 3.2H23.9c-0.2-1-1.2-1.8-2.3-1.8-1.3 0-2.3 1.1-2.3 2.4s1 2.4 2.3 2.4c1.1 0 2-0.8 2.3-1.8h13.5c0.4 1.5 1.7 2.5 3.3 2.5 1.6 0 2.9-1.1 3.3-2.5h7v2h2.5v-2h13.3v4.3h-54c-2.1-4.5-3.2-9.4-3.2-14.7C9.5 25.7 25.1 10.1 44.4 10.1zM44.4 79.9c-13.6 0-25.4-7.8-31.1-19.2h29.4v6.4H48v-6.4h2.2v6.4h5.4v-6.4h2.2v6.4h5.4v-6.4h3.6v2.9h2.9v1.1h1.1v-1.1h2.5v1C66.9 73.8 56.4 79.9 44.4 79.9z" fill="#e9efe7" data-fill-palette-color="quaternary"></path></svg></g></svg></g><g></g></svg></g></svg></g></svg></g></svg></g><defs></defs></svg><rect width="338.8343174564823" height="338.8343174564823" fill="none" stroke="none" visibility="hidden"></rect></g></svg></g></svg>